<svg xmlns="http://www.w3.org/2000/svg" width="20" height="20" fill="none" viewBox="0 0 21 21"><path stroke="#fff" stroke-linecap="round" stroke-linejoin="round" stroke-width="1.5" d="M17.417 6.333h-2.5a1.666 1.666 0 0 1-1.667-1.666v-2.5"/><path fill="#1D1E17" stroke="#1D1E17" stroke-linecap="round" stroke-linejoin="round" stroke-width="1.5" d="M8.25 15.5a1.667 1.667 0 0 1-1.667-1.667v-10A1.667 1.667 0 0 1 8.25 2.167h5.833L17.417 5.5v8.333A1.666 1.666 0 0 1 15.75 15.5z"/><path stroke="#fff" stroke-linecap="square" stroke-linejoin="round" stroke-width="1.5" d="M17.417 6.333h-2.5a1.666 1.666 0 0 1-1.667-1.666v-2.5"/><path stroke="#1D1E17" stroke-linecap="round" stroke-linejoin="round" stroke-width="1.5" d="M3.25 6.833V17.5a1.333 1.333 0 0 0 1.333 1.333h8.167"/></svg>