<svg xmlns="http://www.w3.org/2000/svg" width="24" height="24" fill="none"><path fill="#fff" d="M11.999 4.51a7.5 7.5 0 0 0-7.5 7.5c0 3.613 2.664 6.706 6.001 7.34l-.001-2.37c-.342.163-.72.28-1.125.28-.352 0-.677-.06-.984-.187-.205-.084-.535-.433-.657-.68-.261-.53-.248-1.101-.703-1.101-.214 0-.54-.088-.539-.304.002-.178.272-.243.492-.258.707-.052 1.269.626 1.313.726.037.085.124.234.187.305.205.23.521.375.891.375.442 0 .824-.207 1.008-.516.075-.125.196-.45.305-.61-1.864-.14-3.188-1.13-3.188-3.374 0-.659.222-1.31.586-1.805a4.7 4.7 0 0 1 .164-2.32c.885 0 1.665.47 2.18.844.259-.051.544-.094.82-.094h1.5c.255 0 .556.04.797.094.54-.4 1.286-.844 2.203-.844.374 1.1.19 2.118.117 2.508.35.534.649 1.273.627 1.908-.068 1.943-1.33 2.993-3.15 3.085.122.252.156.46.156.749l.002 3.58c3.387-.69 5.998-3.719 5.998-7.33a7.5 7.5 0 0 0-7.5-7.5"/></svg>