<svg xmlns="http://www.w3.org/2000/svg" width="16" height="16" fill="none"><path fill="#1D1E17" fill-opacity=".18" d="M2.567 5.747a2.667 2.667 0 0 1 3.186-3.18 2.667 2.667 0 0 1 4.494 0 2.666 2.666 0 0 1 3.187 3.186 2.666 2.666 0 0 1 0 4.494 2.667 2.667 0 0 1-3.18 3.186 2.668 2.668 0 0 1-4.5 0 2.667 2.667 0 0 1-3.187-3.18 2.667 2.667 0 0 1 0-4.506"/><path stroke="#fff" stroke-linecap="round" stroke-linejoin="round" stroke-width="1.5" d="M6.06 6a2 2 0 0 1 3.887.667c0 1.333-2 2-2 2M8 11.333h.007"/></svg>