<svg xmlns="http://www.w3.org/2000/svg" width="20" height="20" fill="none" viewBox="0 0 20 21"><path fill="#1D1E17" d="M13.333 18v-1.667A3.333 3.333 0 0 0 10 13H5a3.333 3.333 0 0 0-3.333 3.333V18"/><path stroke="#1D1E17" stroke-linecap="round" stroke-linejoin="round" stroke-width="1.5" d="M13.333 18v-1.667A3.333 3.333 0 0 0 10 13H5a3.333 3.333 0 0 0-3.333 3.333V18"/><path fill="#1D1E17" stroke="#1D1E17" stroke-linecap="round" stroke-linejoin="round" stroke-width="1.5" d="M7.5 9.667A3.333 3.333 0 1 0 7.5 3a3.333 3.333 0 0 0 0 6.667"/><path fill="#D9D9D9" d="M18.333 18v-1.667a3.334 3.334 0 0 0-2.5-3.225"/><path stroke="#1D1E17" stroke-linecap="round" stroke-linejoin="round" stroke-width="1.5" d="M18.333 18v-1.667a3.334 3.334 0 0 0-2.5-3.225"/><path fill="#1D1E17" d="M13.333 3.108a3.333 3.333 0 0 1 0 6.459"/><path stroke="#1D1E17" stroke-linecap="round" stroke-linejoin="round" stroke-width="1.5" d="M13.333 3.108a3.333 3.333 0 0 1 0 6.459"/></svg>